<svg xmlns="http://www.w3.org/2000/svg" viewBox="0 0 800 500" width="800" height="500">
  <defs>
    <linearGradient id="bg" x1="0%" y1="0%" x2="100%" y2="100%">
      <stop offset="0%" style="stop-color:#f5f0e8"/>
      <stop offset="100%" style="stop-color:#e8dfc8"/>
    </linearGradient>
    <linearGradient id="accent" x1="0%" y1="0%" x2="100%" y2="0%">
      <stop offset="0%" style="stop-color:#2c3e50"/>
      <stop offset="100%" style="stop-color:#1a252f"/>
    </linearGradient>
  </defs>
  <!-- Fond type journal -->
  <rect width="800" height="500" fill="url(#bg)"/>
  <!-- En-tête journal -->
  <rect x="0" y="0" width="800" height="70" fill="url(#accent)"/>
  <text x="400" y="48" font-family="Georgia, serif" font-size="38" fill="white" text-anchor="middle" font-weight="bold" letter-spacing="4">LE MONDE DES IDÉES</text>
  <!-- Ligne séparatrice -->
  <rect x="30" y="75" width="740" height="3" fill="#2c3e50"/>
  <rect x="30" y="82" width="740" height="1" fill="#2c3e50" opacity="0.4"/>
  <!-- Colonne 1 -->
  <rect x="40" y="100" width="220" height="18" rx="3" fill="#2c3e50" opacity="0.15"/>
  <rect x="40" y="128" width="220" height="10" rx="2" fill="#2c3e50" opacity="0.1"/>
  <rect x="40" y="145" width="200" height="10" rx="2" fill="#2c3e50" opacity="0.1"/>
  <rect x="40" y="162" width="220" height="10" rx="2" fill="#2c3e50" opacity="0.1"/>
  <rect x="40" y="179" width="180" height="10" rx="2" fill="#2c3e50" opacity="0.1"/>
  <rect x="40" y="196" width="220" height="10" rx="2" fill="#2c3e50" opacity="0.1"/>
  <rect x="40" y="213" width="210" height="10" rx="2" fill="#2c3e50" opacity="0.1"/>
  <!-- Grande image centrale (microphone / tribune) -->
  <rect x="285" y="95" width="230" height="240" rx="4" fill="#2c3e50" opacity="0.08" stroke="#2c3e50" stroke-width="1" opacity="0.3"/>
  <!-- Tribune / pupitre stylisé -->
  <rect x="360" y="200" width="80" height="100" rx="5" fill="#8b5e3c"/>
  <rect x="340" y="190" width="120" height="20" rx="3" fill="#6b3a1c"/>
  <!-- Micro -->
  <rect x="393" y="150" width="14" height="50" rx="7" fill="#4a4a4a"/>
  <circle cx="400" cy="145" r="15" fill="#3a3a3a"/>
  <!-- Ondes sonores -->
  <path d="M370,130 Q355,145 355,165 Q355,185 370,200" fill="none" stroke="#2c3e50" stroke-width="2.5" opacity="0.4" stroke-linecap="round"/>
  <path d="M355,118 Q332,140 332,168 Q332,196 355,215" fill="none" stroke="#2c3e50" stroke-width="2" opacity="0.25" stroke-linecap="round"/>
  <path d="M430,130 Q445,145 445,165 Q445,185 430,200" fill="none" stroke="#2c3e50" stroke-width="2.5" opacity="0.4" stroke-linecap="round"/>
  <path d="M445,118 Q468,140 468,168 Q468,196 445,215" fill="none" stroke="#2c3e50" stroke-width="2" opacity="0.25" stroke-linecap="round"/>
  <!-- Colonne 3 -->
  <rect x="540" y="100" width="220" height="18" rx="3" fill="#2c3e50" opacity="0.15"/>
  <rect x="540" y="128" width="220" height="10" rx="2" fill="#2c3e50" opacity="0.1"/>
  <rect x="540" y="145" width="200" height="10" rx="2" fill="#2c3e50" opacity="0.1"/>
  <rect x="540" y="162" width="220" height="10" rx="2" fill="#2c3e50" opacity="0.1"/>
  <rect x="540" y="179" width="190" height="10" rx="2" fill="#2c3e50" opacity="0.1"/>
  <rect x="540" y="196" width="220" height="10" rx="2" fill="#2c3e50" opacity="0.1"/>
  <rect x="540" y="213" width="205" height="10" rx="2" fill="#2c3e50" opacity="0.1"/>
  <!-- Séparateurs colonnes -->
  <line x1="273" y1="90" x2="273" y2="360" stroke="#2c3e50" stroke-width="1" opacity="0.2"/>
  <line x1="527" y1="90" x2="527" y2="360" stroke="#2c3e50" stroke-width="1" opacity="0.2"/>
  <!-- Bas de page -->
  <rect x="30" y="360" width="740" height="2" fill="#2c3e50" opacity="0.3"/>
  <!-- Lignes du bas -->
  <rect x="40" y="372" width="340" height="8" rx="2" fill="#2c3e50" opacity="0.1"/>
  <rect x="40" y="386" width="300" height="8" rx="2" fill="#2c3e50" opacity="0.1"/>
  <rect x="420" y="372" width="340" height="8" rx="2" fill="#2c3e50" opacity="0.1"/>
  <rect x="420" y="386" width="310" height="8" rx="2" fill="#2c3e50" opacity="0.1"/>
  <!-- Titre bas -->
  <text x="400" y="440" font-family="Georgia, serif" font-size="30" fill="#2c3e50" text-anchor="middle" font-weight="bold">TEXTE ARGUMENTATIF</text>
  <text x="400" y="468" font-family="Georgia, serif" font-size="16" fill="#5a6a7a" text-anchor="middle">Thèse · Arguments · Réfutation</text>
</svg>
